<svg width="76" height="75" viewBox="0 0 76 75" fill="none" xmlns="http://www.w3.org/2000/svg">
<g clip-path="url(#clip0_1204_1481)">
<path d="M56.1315 61.6266C55.9594 61.6266 55.7873 61.5856 55.6234 61.501C55.0881 61.2198 54.8832 60.5592 55.1645 60.0269C57.9016 54.8266 57.0384 45.1494 54.5172 39.3703C53.9982 38.1829 53.9135 36.8726 54.2713 35.5841C54.7903 33.7196 56.432 33.5804 57.7513 33.4685C59.2782 33.3374 61.0073 33.19 62.8702 31.2682C64.2169 29.8788 64.714 27.6813 64.8861 26.5702C64.165 26.2017 63.0095 25.6202 62.1628 25.2162C60.4829 24.4191 59.9721 23.076 59.5596 21.9978C59.1772 20.9959 58.8467 20.1278 57.6502 19.4618C55.6016 18.318 54.356 18.0668 53.3535 17.8648C53.0968 17.8129 52.8537 17.7638 52.6187 17.7038C51.1819 17.338 50.9279 14.7774 50.917 11.9111C47.8741 14.1031 46.104 18.4299 46.0849 18.479C46.0139 18.6537 45.9019 18.8066 45.7544 18.924C42.8535 21.2498 42.0449 25.5929 41.1872 30.19L41.0916 30.7059C40.9796 31.2983 40.4115 31.6886 39.816 31.5794C39.2233 31.4675 38.8326 30.897 38.9419 30.3046L39.0375 29.7887C39.9498 24.8859 40.813 20.2507 44.1673 17.4007C44.6945 16.1942 47.0245 11.3078 50.958 9.33412C51.4251 9.09936 51.9686 9.12666 52.4111 9.40237C52.8564 9.68081 53.1159 10.1585 53.1104 10.6827C53.0722 13.4971 53.2825 15.0995 53.4683 15.6564C53.5721 15.6782 53.6786 15.7001 53.7906 15.7219C54.8204 15.9294 56.3746 16.2433 58.721 17.5536C60.6112 18.6073 61.163 20.0569 61.6055 21.2198C62.0071 22.2735 62.2556 22.8413 63.1024 23.2453C64.4545 23.8868 66.4786 24.9296 66.5633 24.976C66.9484 25.1753 67.1806 25.582 67.1533 26.0133C67.1424 26.188 66.8637 30.291 64.4409 32.7915C62.0071 35.3002 59.5596 35.5104 57.9371 35.6469C56.5467 35.7643 56.4648 35.8543 56.3773 36.171C56.1506 36.9818 56.1998 37.7652 56.5194 38.4995C59.2318 44.7153 60.2234 55.1023 57.0985 61.0451C56.9018 61.4164 56.5221 61.6293 56.1315 61.6293V61.6266Z" fill="url(#paint0_linear_1204_1481)"/>
<path d="M38.0105 74.8062C30.6872 74.8062 23.6043 72.6714 17.5321 68.6368C17.2261 68.4347 17.0431 68.0908 17.0431 67.725C17.0431 67.5612 17.0595 63.6821 17.5375 61.067C18.1576 57.682 18.7121 56.4727 19.7228 54.2806L19.9386 53.8111C20.5941 52.3779 20.5887 51.5999 20.5286 51.3543C20.5204 51.3543 20.5122 51.3543 20.5013 51.3543C12.9021 52.1869 7.83783 52.206 4.44526 49.8447C1.20838 47.5953 0.0338135 43.9319 0.0338135 42.021C0.0338135 41.5242 0.369793 41.0901 0.853276 40.9646C0.973464 40.9345 1.13463 40.8936 1.3313 40.8444C5.16092 39.8972 11.7303 37.9481 12.7273 35.5158C15.1392 29.6276 19.8457 27.9542 23.6753 27.1544C26.5407 26.5566 29.57 20.9741 29.7393 17.2424C29.7612 16.7893 30.0589 16.3962 30.4905 16.2542C30.9221 16.1123 31.3947 16.2542 31.6815 16.6036C33.7465 19.156 34.7709 22.4673 35.7624 25.6694C36.4562 27.9133 37.1719 30.2309 38.2317 32.18C39.8351 35.1364 42.411 37.9918 45.1371 41.0137C49.7998 46.184 55.0853 52.0449 57.1968 60.2562C57.3471 60.8404 56.9947 61.4355 56.4101 61.5856C55.8256 61.7358 55.2301 61.3836 55.0799 60.7994C53.1022 53.1095 48.0079 47.4588 43.5145 42.4769C40.6983 39.354 38.0378 36.4058 36.3114 33.2201C35.1505 31.0799 34.4021 28.6558 33.6755 26.3109C33.0008 24.1297 32.3534 22.0332 31.4192 20.2125C30.3048 24.1216 27.494 28.5821 24.126 29.2864C19.1573 30.3237 16.3548 32.4311 14.7541 36.3375C13.3938 39.657 7.13036 41.6306 2.32012 42.8427C2.58234 44.1885 3.44824 46.4788 5.70177 48.0457C8.52072 50.0085 13.3665 49.932 20.2718 49.1759C21.1213 49.083 21.8343 49.3751 22.285 50.0003C22.9979 50.9885 22.8722 52.6618 21.9326 54.7119L21.7141 55.1842C20.7471 57.2834 20.2636 58.3344 19.6927 61.4491C19.354 63.3 19.2639 65.9643 19.242 67.1326C24.8444 70.7196 31.3209 72.6141 38.0159 72.6141C57.2269 72.6141 72.854 56.9968 72.854 37.798C72.854 25.814 66.8009 14.8183 56.6642 8.38414C56.1561 8.06202 56.0031 7.38502 56.3282 6.87728C56.6505 6.3668 57.3279 6.21666 57.836 6.54151C68.6092 13.377 75.0393 25.0633 75.0393 37.798C75.0393 58.2006 58.4315 74.798 38.0159 74.798L38.0105 74.8062ZM2.32831 34.6641C2.28461 34.6641 2.24363 34.6641 2.19993 34.6559C1.60172 34.585 1.17287 34.0417 1.24116 33.4439C3.42639 14.8374 19.2338 0.806152 38.0105 0.806152C41.6844 0.806152 45.3146 1.34393 48.7973 2.40037C49.3737 2.57508 49.7015 3.18656 49.5239 3.76255C49.3491 4.33854 48.74 4.66612 48.1609 4.48868C44.883 3.4923 41.4686 2.98728 38.0105 2.98728C20.3428 2.99001 5.46958 16.1914 3.41 33.7005C3.34444 34.2574 2.87189 34.6641 2.32558 34.6641H2.32831Z" fill="url(#paint1_linear_1204_1481)"/>
</g>
<defs>
<linearGradient id="paint0_linear_1204_1481" x1="38.9282" y1="35.4012" x2="67.156" y2="35.4012" gradientUnits="userSpaceOnUse">
<stop stop-color="#8CD6D6"/>
<stop offset="1" stop-color="#FF9F80"/>
</linearGradient>
<linearGradient id="paint1_linear_1204_1481" x1="75.0338" y1="37.8062" x2="0.0338135" y2="37.8062" gradientUnits="userSpaceOnUse">
<stop stop-color="#8CD6D6"/>
<stop offset="1" stop-color="#FF9F80"/>
</linearGradient>
<clipPath id="clip0_1204_1481">
<rect width="75" height="74" fill="white" transform="translate(0.0338135 0.806152)"/>
</clipPath>
</defs>
</svg>
