<svg width="75" height="75" viewBox="0 0 75 75" fill="none" xmlns="http://www.w3.org/2000/svg">
<g clip-path="url(#clip0_1204_1470)">
<path d="M34.5418 54.5526C33.7145 54.5526 32.9684 54.0679 32.6131 53.2913L24.8299 36.2175C24.802 36.1541 24.769 36.1465 24.7462 36.1439C24.7284 36.1439 24.698 36.149 24.6675 36.2023L20.7112 43.0212C20.328 43.681 19.6251 44.0895 18.879 44.0895H7.89824C7.33741 44.0895 6.88316 43.6353 6.88316 43.0745C6.88316 42.5136 7.33741 42.0594 7.89824 42.0594H18.8815C18.9069 42.0594 18.9373 42.0365 18.9576 42.001L22.914 35.1821C23.3175 34.4843 24.0585 34.0782 24.8477 34.1163C25.6395 34.1544 26.3424 34.6365 26.6774 35.375L34.4606 52.4488C34.4936 52.5199 34.5215 52.5224 34.5494 52.5224C34.5799 52.5224 34.6154 52.5072 34.6408 52.426L44.7054 20.037C44.9896 19.1234 45.8042 18.5144 46.7381 18.5144C46.7432 18.5144 46.7482 18.5144 46.7533 18.5144C47.6923 18.522 48.5069 19.1463 48.781 20.07L55.2395 41.9604C55.2572 42.0238 55.3029 42.0594 55.3334 42.0594H65.9969C66.5577 42.0594 67.012 42.5136 67.012 43.0745C67.012 43.6353 66.5577 44.0895 65.9969 44.0895H55.3334C54.3868 44.0895 53.5671 43.4653 53.293 42.5339L46.8345 20.6435C46.8066 20.5522 46.7736 20.542 46.7381 20.5446C46.7051 20.5446 46.6721 20.5522 46.6442 20.641L36.5796 53.0299C36.3106 53.8978 35.5645 54.4942 34.6788 54.55C34.6332 54.5526 34.59 54.5551 34.5443 54.5551L34.5418 54.5526Z" fill="url(#paint0_linear_1204_1470)"/>
<path d="M1.04893 38.8212C0.488096 38.8212 0.033844 38.367 0.033844 37.8061C0.033844 17.4029 16.6306 0.806152 37.0338 0.806152C37.5947 0.806152 38.0489 1.2604 38.0489 1.82124C38.0489 2.38208 37.5947 2.83633 37.0338 2.83633C17.7522 2.83633 2.06402 18.5245 2.06402 37.8061C2.06402 38.367 1.60977 38.8212 1.04893 38.8212Z" fill="url(#paint1_linear_1204_1470)"/>
<path d="M37.0338 68.6446C20.0286 68.6446 6.19543 54.8114 6.19543 37.8061C6.19543 20.8009 20.0286 6.96774 37.0338 6.96774C54.0391 6.96774 67.8722 20.8009 67.8722 37.8061C67.8722 54.8114 54.0391 68.6446 37.0338 68.6446ZM37.0338 8.99792C21.1502 8.99792 8.22561 21.92 8.22561 37.8061C8.22561 53.6923 21.1477 66.6144 37.0338 66.6144C52.92 66.6144 65.8421 53.6923 65.8421 37.8061C65.8421 21.92 52.92 8.99792 37.0338 8.99792Z" fill="url(#paint2_linear_1204_1470)"/>
<path d="M37.0338 74.8062C36.473 74.8062 36.0188 74.3519 36.0188 73.7911C36.0188 73.2302 36.473 72.776 37.0338 72.776C56.3155 72.776 72.0037 57.0878 72.0037 37.8062C72.0037 37.2453 72.4579 36.7911 73.0188 36.7911C73.5796 36.7911 74.0338 37.2453 74.0338 37.8062C74.0338 58.2069 57.4371 74.8062 37.0338 74.8062Z" fill="url(#paint3_linear_1204_1470)"/>
</g>
<defs>
<linearGradient id="paint0_linear_1204_1470" x1="6.88316" y1="36.5322" x2="67.0094" y2="36.5322" gradientUnits="userSpaceOnUse">
<stop stop-color="#8CD6D6"/>
<stop offset="1" stop-color="#FF9F80"/>
</linearGradient>
<linearGradient id="paint1_linear_1204_1470" x1="0.033844" y1="19.8137" x2="38.0489" y2="19.8137" gradientUnits="userSpaceOnUse">
<stop stop-color="#8CD6D6"/>
<stop offset="1" stop-color="#FF9F80"/>
</linearGradient>
<linearGradient id="paint2_linear_1204_1470" x1="6.19543" y1="37.8062" x2="67.8722" y2="37.8062" gradientUnits="userSpaceOnUse">
<stop stop-color="#8CD6D6"/>
<stop offset="1" stop-color="#FF9F80"/>
</linearGradient>
<linearGradient id="paint3_linear_1204_1470" x1="36.0188" y1="55.7986" x2="74.0338" y2="55.7986" gradientUnits="userSpaceOnUse">
<stop stop-color="#8CD6D6"/>
<stop offset="1" stop-color="#FF9F80"/>
</linearGradient>
<clipPath id="clip0_1204_1470">
<rect width="74" height="74" fill="white" transform="translate(0.033844 0.806152)"/>
</clipPath>
</defs>
</svg>
