<svg width="94" height="75" viewBox="0 0 94 75" fill="none" xmlns="http://www.w3.org/2000/svg">
<g clip-path="url(#clip0_1204_1460)">
<path d="M35.5608 74.8062C35.3489 74.8062 35.1343 74.7453 34.9419 74.6209L19.6635 64.5093C19.1506 64.1692 19.0141 63.4833 19.3541 62.9744C19.697 62.4655 20.3883 62.3299 20.9012 62.6674L27.6136 67.1091L31.2596 61.6855L26.2393 58.3639C25.5396 57.902 25.063 57.194 24.8985 56.3781C24.734 55.5594 24.8985 54.7269 25.3668 54.0327L50.8029 16.2058C51.7674 14.7731 53.7242 14.3859 55.1682 15.3401L60.1885 18.6617L71.8626 1.29846C72.2027 0.789568 72.8968 0.654047 73.4097 0.991466C73.9226 1.33165 74.0592 2.01755 73.7191 2.52645L62.0422 19.8925L67.0625 23.2141C68.5065 24.1711 68.8967 26.1126 67.935 27.5453L42.5017 65.3722C42.0362 66.0665 41.3226 66.5394 40.5003 66.7026C39.6751 66.8657 38.8361 66.7026 38.1364 66.2379L33.1161 62.9163L29.47 68.3399L36.1824 72.7817C36.6953 73.1218 36.8319 73.8077 36.4918 74.3166C36.2772 74.6375 35.9231 74.8089 35.5636 74.8089L35.5608 74.8062ZM33.4367 60.4658L39.3741 64.3959C39.5776 64.5315 39.8229 64.5785 40.0626 64.5315C40.3023 64.4845 40.5114 64.3462 40.648 64.1443L44.6286 58.2228L38.7831 54.3536C38.2702 54.0134 38.1336 53.3275 38.4737 52.8186C38.8166 52.3097 39.5079 52.1742 40.0208 52.5116L45.8662 56.3808L66.0813 26.3173C66.3629 25.8997 66.2486 25.3327 65.8277 25.0534L59.8902 21.1233C59.8902 21.1233 59.8847 21.1177 59.8791 21.1177L59.8679 21.1122L53.9305 17.1821C53.5096 16.9027 52.9382 17.0161 52.6566 17.4338L27.2233 55.2607C27.0867 55.4626 27.0393 55.706 27.0867 55.9439C27.1341 56.1817 27.2735 56.3891 27.477 56.5247L33.4144 60.4548C33.4144 60.4548 33.42 60.4603 33.4227 60.4603C33.4255 60.4603 33.4283 60.4658 33.4311 60.4658H33.4367Z" fill="url(#paint0_linear_1204_1460)"/>
<path d="M78.5862 49.4914C71.8404 49.4914 63.1377 48.7778 53.7912 47.4503C51.0232 47.0603 48.0684 46.5929 45.0133 46.0591C41.1944 45.387 37.4925 44.6624 34.0081 43.9046C24.3745 41.8082 15.7443 39.3273 9.70934 36.9211C2.70709 34.1305 -0.356394 31.7188 0.0728842 29.3319C0.541187 26.7294 4.93432 25.4903 13.9046 25.4323C21.8044 25.3769 32.3412 26.3339 43.5805 28.115C44.1882 28.2118 44.6035 28.7788 44.5059 29.3817C44.4084 29.9847 43.8342 30.3968 43.2293 30.3C32.1071 28.5382 21.6929 27.5951 13.9213 27.6449C2.93567 27.7168 2.27224 29.6998 2.26945 29.7192C2.03809 31.008 9.24382 36.249 34.4876 41.7418C37.9413 42.4941 41.6153 43.2132 45.4007 43.8797C48.4308 44.408 51.3605 44.8726 54.1062 45.2598C64.289 46.7063 73.6745 47.4143 80.5318 47.2567C88.6909 47.0686 90.7119 45.7106 90.8011 45.2045C90.8763 44.773 89.7557 43.0915 83.7263 40.5442C78.5527 38.3565 71.2689 36.1274 62.6611 34.0945C62.0617 33.9535 61.691 33.3561 61.836 32.7615C61.9781 32.1668 62.5802 31.799 63.1795 31.9428C71.9045 34.0033 79.3137 36.2739 84.6016 38.5114C90.7286 41.1001 93.3962 43.3487 93.0004 45.5889C92.5656 48.0532 88.6212 49.2867 80.5876 49.472C79.9437 49.4859 79.2775 49.4942 78.5889 49.4942L78.5862 49.4914Z" fill="url(#paint1_linear_1204_1460)"/>
</g>
<defs>
<linearGradient id="paint0_linear_1204_1460" x1="19.1702" y1="37.8062" x2="73.9059" y2="37.8062" gradientUnits="userSpaceOnUse">
<stop stop-color="#8CD6D6"/>
<stop offset="1" stop-color="#FF9F80"/>
</linearGradient>
<linearGradient id="paint1_linear_1204_1460" x1="0.0338589" y1="37.4604" x2="93.0339" y2="37.4604" gradientUnits="userSpaceOnUse">
<stop stop-color="#8CD6D6"/>
<stop offset="1" stop-color="#FF9F80"/>
</linearGradient>
<clipPath id="clip0_1204_1460">
<rect width="93" height="74" fill="white" transform="translate(0.033844 0.806152)"/>
</clipPath>
</defs>
</svg>
