<svg width="70" height="70" viewBox="0 0 70 70" fill="none" xmlns="http://www.w3.org/2000/svg">
<path d="M18.1168 57.5948C18.1168 57.5948 39.994 48.1314 63.5117 53.0516" stroke="url(#paint0_linear_1204_1446)" stroke-width="2" stroke-linecap="round" stroke-linejoin="round"/>
<path d="M37.9939 32.4012C38.5695 37.001 37.6507 41.6654 35.3724 45.7077C32.8536 50.1728 28.8322 53.6064 24.019 55.3973L18.1193 57.5949L36.8777 24.322" stroke="url(#paint1_linear_1204_1446)" stroke-width="2" stroke-linecap="round" stroke-linejoin="round"/>
<path d="M46.215 3.1976L34.9183 23.2232L42.8693 27.6749L49.7797 15.4187" stroke="url(#paint2_linear_1204_1446)" stroke-width="2" stroke-linecap="round" stroke-linejoin="round"/>
<path d="M37.5047 18.6343L49.7797 15.4187" stroke="url(#paint3_linear_1204_1446)" stroke-width="2" stroke-linecap="round" stroke-linejoin="round"/>
<path d="M46.2153 3.1976C59.374 7.83506 68.8006 20.339 68.8006 35.0404" stroke="url(#paint4_linear_1204_1446)" stroke-width="2" stroke-linecap="round" stroke-linejoin="round"/>
<path d="M63.2738 53.5311C57.2201 62.7306 46.7801 68.8062 34.9185 68.8062C16.206 68.8062 1.03384 53.69 1.03384 35.0405C1.03384 18.7232 12.6494 5.10974 28.0892 1.96155" stroke="url(#paint5_linear_1204_1446)" stroke-width="2" stroke-linecap="round" stroke-linejoin="round"/>
<defs>
<linearGradient id="paint0_linear_1204_1446" x1="17.0357" y1="54.6136" x2="64.5927" y2="54.6136" gradientUnits="userSpaceOnUse">
<stop stop-color="#8CD6D6"/>
<stop offset="1" stop-color="#FF9F80"/>
</linearGradient>
<linearGradient id="paint1_linear_1204_1446" x1="36.4646" y1="45.9818" x2="26.5762" y2="40.4063" gradientUnits="userSpaceOnUse">
<stop stop-color="#8CD6D6"/>
<stop offset="1" stop-color="#FF9F80"/>
</linearGradient>
<linearGradient id="paint2_linear_1204_1446" x1="49.4626" y1="18.1956" x2="39.6424" y2="12.6585" gradientUnits="userSpaceOnUse">
<stop stop-color="#8CD6D6"/>
<stop offset="1" stop-color="#FF9F80"/>
</linearGradient>
<linearGradient id="paint3_linear_1204_1446" x1="48.5651" y1="19.7874" x2="38.7449" y2="14.2503" gradientUnits="userSpaceOnUse">
<stop stop-color="#8CD6D6"/>
<stop offset="1" stop-color="#FF9F80"/>
</linearGradient>
<linearGradient id="paint4_linear_1204_1446" x1="45.1342" y1="19.119" x2="69.8816" y2="19.119" gradientUnits="userSpaceOnUse">
<stop stop-color="#8CD6D6"/>
<stop offset="1" stop-color="#FF9F80"/>
</linearGradient>
<linearGradient id="paint5_linear_1204_1446" x1="-0.0471802" y1="35.3825" x2="64.3548" y2="35.3825" gradientUnits="userSpaceOnUse">
<stop stop-color="#8CD6D6"/>
<stop offset="1" stop-color="#FF9F80"/>
</linearGradient>
</defs>
</svg>
